{"title":"Breakdown 2016 Movies HDRip XviD AAC New Source with Sample ☻rDX","uid":13324676,"size":738565215,"categoryP":"video","categoryS":"movies","magnet":"?xt=urn:btih:5aa60eccc61339797ea044903725b9d746c09751&amp;dn=Breakdown+2016+Movies+HDRip+XviD+AAC+New+Source+with+Sample+%E2%98%BBrDX&amp;tr=udp%3A%2F%2Ftracker.leechers-paradise.org%3A6969&amp;tr=udp%3A%2F%2Fzer0day.ch%3A1337&amp;tr=udp%3A%2F%2Fopen.demonii.com%3A1337&amp;tr=udp%3A%2F%2Ftracker.coppersurfer.tk%3A6969&amp;tr=udp%3A%2F%2Fexodus.desync.com%3A6969","seeders":0,"leechers":1,"uploader":"basicssom","files":2,"time":1453903942,"description":"----------------------------------------------------------------\r\nBreakdown 2016 English Movies HDRip XviD AAC New Source with Sample ~ ☻rDX☻\r\n\r\nSCREEN SHOTS &amp; POSTER:\r\n  \nhttp://doctorhosts.com/2016/1/Breakdown/11.html  \nhttp://doctorhosts.com/2016/1/Breakdown/1.html  \nhttp://doctorhosts.com/2016/1/Breakdown/2.html  \nhttp://doctorhosts.com/2016/1/Breakdown/3.html  \nhttp://doctorhosts.com/2016/1/Breakdown/4.html  \nhttp://doctorhosts.com/2016/1/Breakdown/5.html  \nhttp://doctorhosts.com/2016/1/Breakdown/6.html  \nhttp://doctorhosts.com/2016/1/Breakdown/7.html  \nhttp://doctorhosts.com/2016/1/Breakdown/8.html  \nhttp://doctorhosts.com/2016/1/Breakdown/9.html  \nhttp://doctorhosts.com/2016/1/Breakdown/10.html\r\n\r\nFormat                                   : Matroska\r\nFormat version                           : Version 4 / Version 2\r\nFile size                                : 692 MiB\r\nDuration                                 : 1h 50mn\r\nOverall bit rate                         : 876 Kbps\r\nMovie name                               : Breakdown 2016 English Movies HDRip XviD AAC New Source ☻rDX☻\r\n\r\nVideo\r\nID                                       : 1\r\nFormat                                   : MPEG-4 Visual\r\nFormat profile                           : Advanced   \r\nFormat settings, BVOP                    : Yes\r\nFormat settings, QPel                    : No\r\nFormat settings, GMC                     : No warppoints\r\nFormat settings, Matrix                  : Default (H.263)\r\nCodec ID                                 : V_MS/VFW/FOURCC / XVID\r\nCodec ID/Hint                            : XviD\r\nDuration                                 : 1h 50mn\r\nBit rate                                 : 747 Kbps\r\nWidth                                    : 640 pixels\r\nHeight                                   : 272 pixels\r\nDisplay aspect ratio                     : 2.35:1\r\nFrame rate mode                          : Constant\r\nFrame rate                               : 24.000 fps\r\nColor space                              : YUV\r\nChroma subsampling                       : 4:2:0\r\nBit depth                                : 8 bits\r\nScan type                                : Progressive\r\nCompression mode                         : Lossy\r\nBits/(Pixel*Frame)                       : 0.179\r\nStream size                              : 590 MiB (85%)\r\nTitle                                    : ☻rDX☻\r\nWriting library                          : XviD 67\r\nDefault                                  : Yes\r\nForced                                   : No\r\n\r\nAudio\r\nID                                       : 2\r\nFormat                                   : MPEG Audio\r\nFormat version                           : Version 1\r\nFormat profile                           : Layer 3\r\nMode                                     : Joint stereo\r\nMode extension                           : MS Stereo\r\nCodec ID                                 : A_MPEG/L3\r\nCodec ID/Hint                            : MP3\r\nDuration                                 : 1h 50mn\r\nBit rate mode                            : Constant\r\nBit rate                                 : 112 Kbps\r\nChannel(s)                               : 2 channels\r\nSampling rate                            : 48.0 KHz\r\nCompression mode                         : Lossy\r\nStream size                              : 88.5 MiB (13%)\r\nTitle                                    : ☻rDX☻\r\nWriting library                          : LAME3.99r\r\nEncoding settings                        : -m j -V 4 -q 3 -lowpass 15.6 -b 112\r\nDefault                                  : Yes\r\nForced                                   : No\r\n\r\nIMDB                                      \nhttp://www.imdb.com/title/tt3381610/","torrent":{"xt":"urn:btih:5aa60eccc61339797ea044903725b9d746c09751","amp;dn":"Breakdown+2016+Movies+HDRip+XviD+AAC+New+Source+with+Sample+%E2%98%BBrDX","amp;tr":["udp%3A%2F%2Ftracker.leechers-paradise.org%3A6969","udp%3A%2F%2Fzer0day.ch%3A1337","udp%3A%2F%2Fopen.demonii.com%3A1337","udp%3A%2F%2Ftracker.coppersurfer.tk%3A6969","udp%3A%2F%2Fexodus.desync.com%3A6969"],"infoHash":"5aa60eccc61339797ea044903725b9d746c09751","infoHashBuffer":{"type":"Buffer","data":[90,166,14,204,198,19,57,121,126,160,68,144,55,37,185,215,70,192,151,81]},"announce":[],"urlList":[]}}